<svg xmlns="http://www.w3.org/2000/svg" viewBox="0 0 64 64" fill="none">
  <!-- Book base -->
  <path d="M12 48 L32 42 L52 48 L52 16 L32 10 L12 16 Z" fill="#1a2234" stroke="#f59e0b" stroke-width="2" stroke-linejoin="round"/>
  <!-- Book spine -->
  <line x1="32" y1="10" x2="32" y2="42" stroke="#f59e0b" stroke-width="2"/>
  <!-- Left pages -->
  <path d="M16 18 L30 13" stroke="#f59e0b" stroke-width="1" opacity="0.4"/>
  <path d="M16 23 L30 18" stroke="#f59e0b" stroke-width="1" opacity="0.4"/>
  <path d="M16 28 L30 23" stroke="#f59e0b" stroke-width="1" opacity="0.4"/>
  <!-- Right pages -->
  <path d="M48 18 L34 13" stroke="#f59e0b" stroke-width="1" opacity="0.4"/>
  <path d="M48 23 L34 18" stroke="#f59e0b" stroke-width="1" opacity="0.4"/>
  <path d="M48 28 L34 23" stroke="#f59e0b" stroke-width="1" opacity="0.4"/>
  <!-- North Star -->
  <path d="M32 4 L34 9 L32 7.5 L30 9 Z" fill="#f59e0b"/>
  <path d="M32 4 L33 8 L32 7 L31 8 Z" fill="#fbbf24"/>
  <!-- Star rays -->
  <line x1="27" y1="6" x2="29" y2="8" stroke="#f59e0b" stroke-width="1.5" stroke-linecap="round" opacity="0.6"/>
  <line x1="37" y1="6" x2="35" y2="8" stroke="#f59e0b" stroke-width="1.5" stroke-linecap="round" opacity="0.6"/>
  <!-- Small dots -->
  <circle cx="25" cy="4" r="1" fill="#f59e0b" opacity="0.3"/>
  <circle cx="39" cy="4" r="1" fill="#f59e0b" opacity="0.3"/>
</svg>
